<?xml version="1.0" encoding="utf-8"?>
<!-- Generator: Adobe Illustrator 15.0.0, SVG Export Plug-In . SVG Version: 6.00 Build 0)  -->
<!DOCTYPE svg PUBLIC "-//W3C//DTD SVG 1.1//EN" "http://www.w3.org/Graphics/SVG/1.1/DTD/svg11.dtd">
<svg version="1.1" id="Layer_1" xmlns="http://www.w3.org/2000/svg" xmlns:xlink="http://www.w3.org/1999/xlink" x="0px" y="0px"
	 width="467.089px" height="146.886px" viewBox="0 0 467.089 146.886" enable-background="new 0 0 467.089 146.886"
	 xml:space="preserve">
<g>
	<g>
		<path fill="#EBD342" d="M45.856,76.626c0,4.371-3.537,7.912-7.91,7.912c-4.368,0-7.909-3.541-7.909-7.912
			c0-4.366,3.541-7.908,7.909-7.908C42.319,68.719,45.856,72.261,45.856,76.626"/>
		<path fill="#806497" d="M104.438,76.626c0,2.014-1.628,3.64-3.636,3.64c-2.009,0-3.635-1.626-3.635-3.64
			c0-2.002,1.626-3.637,3.635-3.637C102.811,72.99,104.438,74.625,104.438,76.626"/>
		<path fill="#CC4F3E" d="M69.374,49.689c-2.478,0-4.487-2.01-4.487-4.488c0-2.481,2.01-4.494,4.487-4.494
			c2.481,0,4.493,2.013,4.493,4.494C73.867,47.68,71.855,49.689,69.374,49.689"/>
		<path fill="#1A8277" d="M69.374,117.673c-5.312,0-9.612-4.305-9.612-9.615c0-5.316,4.3-9.626,9.612-9.626
			c5.321,0,9.622,4.31,9.622,9.626C78.996,113.371,74.695,117.673,69.374,117.673"/>
		<path fill="#CC4848" d="M86.934,59.07c-2.576-2.573-2.576-6.751,0-9.326c2.578-2.578,6.752-2.578,9.326,0
			c2.578,2.574,2.578,6.752,0,9.326C93.686,61.646,89.512,61.646,86.934,59.07"/>
		<path fill="#8EAE4D" d="M43.13,102.875c-2.224-2.222-2.224-5.824,0-8.045c2.224-2.223,5.825-2.223,8.046,0
			c2.221,2.221,2.221,5.823,0,8.045C48.955,105.1,45.354,105.1,43.13,102.875"/>
		<path fill="#2963AE" d="M86.721,93.972c2.692-2.691,7.064-2.691,9.754,0c2.697,2.697,2.697,7.064,0,9.759
			c-2.689,2.692-7.062,2.692-9.754,0C84.028,101.039,84.028,96.669,86.721,93.972"/>
		<path fill="#E59153" d="M41.42,48.668c3.166-3.164,8.3-3.164,11.473,0c3.16,3.169,3.16,8.307,0,11.467
			c-3.173,3.168-8.307,3.168-11.473,0C38.253,56.976,38.253,51.837,41.42,48.668"/>
		<path fill="#429F6D" d="M53.374,115.128c1.449,0.601,2.132,2.252,1.529,3.699c-0.598,1.447-2.258,2.131-3.705,1.527
			c-1.439-0.596-2.127-2.256-1.526-3.702C50.273,115.21,51.927,114.519,53.374,115.128"/>
		<path fill="#CB494E" d="M89.042,29.313c3.426,1.422,5.047,5.354,3.619,8.781c-1.425,3.424-5.35,5.047-8.78,3.627
			c-3.425-1.429-5.046-5.357-3.624-8.783C81.679,29.513,85.612,27.888,89.042,29.313"/>
		<path fill="#F09053" d="M31.699,60.973c-0.787,1.903-2.967,2.794-4.867,2.006c-1.896-0.788-2.793-2.965-2.006-4.861
			c0.787-1.898,2.968-2.796,4.863-2.008C31.59,56.898,32.487,59.073,31.699,60.973"/>
		<path fill="#4E4E89" d="M116.449,96.193c-1.368,3.292-5.148,4.85-8.438,3.48c-3.292-1.362-4.851-5.146-3.481-8.436
			c1.368-3.293,5.146-4.854,8.435-3.484C116.256,89.121,117.819,92.901,116.449,96.193"/>
		<path fill="#CE7852" d="M54.903,41.58c-3.367,1.393-7.23-0.215-8.618-3.583c-1.39-3.37,0.208-7.229,3.586-8.621
			c3.361-1.392,7.226,0.216,8.617,3.582C59.881,36.332,58.274,40.192,54.903,41.58"/>
		<path fill="#1A7495" d="M88.401,122.708c-2.721,1.123-5.835-0.17-6.965-2.893c-1.122-2.718,0.176-5.835,2.894-6.959
			c2.723-1.122,5.839,0.17,6.961,2.895C92.412,118.466,91.116,121.589,88.401,122.708"/>
		<path fill="#A769A7" d="M106.162,61.44c-1.004-2.413,0.153-5.174,2.562-6.171c2.417-0.994,5.179,0.153,6.171,2.569
			c1.001,2.409-0.149,5.172-2.567,6.166C109.92,65.005,107.153,63.854,106.162,61.44"/>
		<path fill="#B1CF6A" d="M23.402,95.612c-1.1-2.665,0.167-5.718,2.83-6.819c2.665-1.099,5.712,0.172,6.813,2.836
			c1.098,2.66-0.169,5.715-2.835,6.813C27.551,99.537,24.496,98.274,23.402,95.612"/>
		<path fill="#E9E463" d="M57.71,81.783c0.935,2.115-0.022,4.584-2.129,5.518c-2.116,0.93-4.588-0.021-5.522-2.139
			c-0.932-2.111,0.022-4.578,2.136-5.514C54.309,78.718,56.776,79.666,57.71,81.783"/>
		<path fill="#9D577A" d="M87.779,68.5c0.709,1.607-0.02,3.487-1.626,4.197c-1.612,0.705-3.485-0.017-4.197-1.626
			c-0.708-1.609,0.016-3.49,1.625-4.199C85.187,66.166,87.068,66.89,87.779,68.5"/>
		<path fill="#CB6E77" d="M64.626,65.882c-2.62,1.154-5.675-0.027-6.838-2.651c-1.158-2.615,0.032-5.678,2.649-6.832
			c2.617-1.159,5.681,0.03,6.84,2.644C68.434,61.663,67.244,64.724,64.626,65.882"/>
		<path fill="#4A6EB3" d="M77.718,95.509c-1.87,0.83-4.062-0.02-4.896-1.895c-0.824-1.869,0.025-4.062,1.898-4.892
			c1.87-0.829,4.064,0.022,4.893,1.894C80.442,92.494,79.596,94.686,77.718,95.509"/>
		<path fill="#CA506B" d="M74.746,62.752c-1.062-0.41-1.585-1.596-1.178-2.663c0.413-1.055,1.604-1.584,2.666-1.172
			c1.053,0.408,1.584,1.598,1.177,2.661C76.994,62.64,75.806,63.167,74.746,62.752"/>
		<path fill="#309685" d="M62.43,94.572c-1.187-0.465-1.774-1.795-1.316-2.98s1.794-1.776,2.977-1.314
			c1.19,0.459,1.779,1.791,1.318,2.979C64.95,94.442,63.616,95.031,62.43,94.572"/>
		<path fill="#5D63AC" d="M82.794,81.824c0.509-1.311,1.985-1.968,3.295-1.461c1.313,0.514,1.96,1.987,1.456,3.299
			c-0.508,1.312-1.985,1.961-3.295,1.459C82.934,84.608,82.283,83.132,82.794,81.824"/>
		<path fill="#CD8655" d="M50.695,69.399c0.618-1.603,2.408-2.395,4.011-1.776c1.595,0.618,2.387,2.418,1.771,4.012
			c-0.62,1.598-2.416,2.396-4.01,1.768C50.868,72.788,50.072,70.989,50.695,69.399"/>
		<path fill="#1A8068" d="M70.455,127.576c1.889-0.041,3.455,1.461,3.496,3.352c0.034,1.893-1.468,3.457-3.358,3.498
			c-1.888,0.033-3.453-1.467-3.492-3.357C67.062,129.183,68.562,127.612,70.455,127.576"/>
		<path fill="#CD7050" d="M68.136,15.319c4.479-0.089,8.194,3.469,8.281,7.948c0.092,4.483-3.464,8.192-7.949,8.284
			c-4.479,0.094-8.188-3.462-8.28-7.95C60.101,19.123,63.649,15.418,68.136,15.319"/>
		<path fill="#E9D362" d="M20.128,78.235c0.053,2.483-1.921,4.541-4.403,4.595c-2.479,0.047-4.535-1.929-4.586-4.404
			c-0.053-2.486,1.919-4.54,4.4-4.59C18.024,73.779,20.075,75.751,20.128,78.235"/>
		<path fill="#635BA4" d="M130.989,75.949c0.092,4.305-3.329,7.869-7.631,7.953c-4.312,0.096-7.875-3.334-7.962-7.636
			c-0.091-4.303,3.33-7.867,7.634-7.957C127.335,68.225,130.905,71.639,130.989,75.949"/>
		<path fill="#CD7050" d="M33.463,42.72c-1.519,1.586-4.025,1.63-5.605,0.115c-1.579-1.514-1.635-4.025-0.116-5.601
			c1.514-1.584,4.024-1.63,5.607-0.122C34.929,38.631,34.979,41.145,33.463,42.72"/>
		<path fill="#4787C4" d="M112.876,118.916c-2.459,2.576-6.543,2.656-9.103,0.195c-2.567-2.466-2.655-6.542-0.191-9.109
			c2.464-2.562,6.537-2.647,9.104-0.185C115.255,112.276,115.334,116.356,112.876,118.916"/>
		<path fill="#C94363" d="M102.702,42.523c-2.275-2.182-2.349-5.797-0.167-8.069c2.185-2.28,5.801-2.354,8.075-0.174
			c2.277,2.188,2.354,5.802,0.166,8.078C108.592,44.635,104.975,44.712,102.702,42.523"/>
		<path fill="#8AC36F" d="M27.806,120.583c-2.513-2.418-2.595-6.402-0.186-8.918c2.41-2.513,6.406-2.592,8.916-0.183
			c2.507,2.412,2.597,6.397,0.183,8.917C34.31,122.91,30.319,122.987,27.806,120.583"/>
	</g>
	<g>
		<path fill="#797B7D" d="M209.697,39.23v11.752c-8.199-4.011-15.743-6.011-22.635-6.011c-8.825,0-16.273,2.848-22.326,8.551
			c-6.056,5.704-9.077,12.723-9.077,21.021c0,8.475,3.099,15.543,9.292,21.209c6.185,5.672,13.937,8.508,23.248,8.508
			c6.763,0,13.938-2.141,21.498-6.393v11.891c-6.885,3.648-14.345,5.461-22.391,5.461c-11.79,0-21.851-3.973-30.215-11.944
			c-8.348-7.962-12.538-17.587-12.538-28.854c0-11.048,4.112-20.514,12.338-28.396c8.207-7.875,18.12-11.788,29.693-11.788
			C194.037,34.237,201.733,35.885,209.697,39.23"/>
		<polygon fill="#797B7D" points="221.212,36.605 263.373,36.605 263.373,47.009 231.49,47.009 231.49,65.991 263.373,65.991 
			263.373,76.253 231.49,76.253 231.49,102.401 263.373,102.401 263.373,112.677 221.212,112.677 		"/>
		<polygon fill="#797B7D" points="275.009,33.56 331.25,91.371 331.25,36.605 341.642,36.605 341.642,116.183 285.395,58.634 
			285.395,112.677 275.009,112.677 		"/>
		<polygon fill="#797B7D" points="356.337,36.605 398.478,36.605 398.478,47.009 366.601,47.009 366.601,65.991 398.478,65.991 
			398.478,76.253 366.601,76.253 366.601,102.401 398.478,102.401 398.478,112.677 356.337,112.677 		"/>
		<polygon fill="#797B7D" points="406.06,36.605 452.574,36.605 452.574,47.009 434.427,47.009 434.427,112.677 424.15,112.677 
			424.15,47.009 406.06,47.009 		"/>
	</g>
</g>
<g>
	<path fill="#797B7D" d="M160.871,131.856c-1.041,1.424-2.466,1.997-4.075,1.997c-3.349,0-5.673-2.42-5.673-5.763
		c0-3.349,2.325-5.769,5.673-5.769c1.486,0,2.819,0.5,3.776,1.723l-0.833,0.697c-0.681-1.024-1.846-1.486-2.943-1.486
		c-2.871,0-4.655,2.108-4.655,4.835c0,2.73,1.784,4.835,4.655,4.835c1.097,0,2.459-0.528,3.236-1.702L160.871,131.856z"/>
	<polygon fill="#797B7D" points="161.951,122.602 168.661,122.602 168.661,123.532 162.976,123.532 162.976,127.437 
		168.307,127.437 168.307,128.37 162.976,128.37 162.976,132.65 168.907,132.65 168.907,133.579 161.951,133.579 	"/>
	<polygon fill="#797B7D" points="170.35,122.602 171.666,122.602 178.35,132.215 178.374,132.215 178.374,122.602 179.398,122.602 
		179.398,133.579 178.084,133.579 171.403,123.97 171.375,123.97 171.375,133.579 170.35,133.579 	"/>
	<polygon fill="#797B7D" points="184.043,123.532 180.29,123.532 180.29,122.602 188.817,122.602 188.817,123.532 185.067,123.532 
		185.067,133.579 184.043,133.579 	"/>
	<path fill="#797B7D" d="M189.712,122.606h2.887c0.867,0,3.903,0,3.903,2.88c0,2.093-1.596,2.665-2.806,2.818l3.193,5.27h-1.165
		l-3.081-5.204h-1.908v5.204h-1.024V122.606z M190.737,127.442h2.169c2.153,0,2.573-1.196,2.573-1.956
		c0-0.761-0.419-1.952-2.573-1.952h-2.169V127.442z"/>
	<path fill="#797B7D" d="M203.076,122.327c3.347,0,5.669,2.415,5.669,5.764c0,3.351-2.323,5.763-5.669,5.763
		c-3.351,0-5.678-2.412-5.678-5.763C197.398,124.742,199.725,122.327,203.076,122.327 M203.076,132.925
		c2.863,0,4.645-2.104,4.645-4.835s-1.782-4.835-4.645-4.835c-2.872,0-4.653,2.104-4.653,4.835S200.204,132.925,203.076,132.925"/>
	<polygon fill="#797B7D" points="213.49,122.602 214.809,122.602 221.487,132.215 221.519,132.215 221.519,122.602 222.542,122.602 
		222.542,133.579 221.225,133.579 214.544,123.97 214.515,123.97 214.515,133.579 213.49,133.579 	"/>
	<path fill="#797B7D" d="M228.115,122.601h1.052l4.617,10.978h-1.146l-1.193-2.911h-5.814l-1.239,2.911h-1.069L228.115,122.601z
		 M228.591,123.719l-2.556,6.016h5.039L228.591,123.719z"/>
	<path fill="#797B7D" d="M243.607,131.856c-1.037,1.424-2.468,1.997-4.073,1.997c-3.351,0-5.677-2.42-5.677-5.763
		c0-3.349,2.326-5.769,5.677-5.769c1.489,0,2.815,0.5,3.782,1.723l-0.838,0.697c-0.686-1.024-1.847-1.486-2.944-1.486
		c-2.869,0-4.653,2.108-4.653,4.835c0,2.73,1.784,4.835,4.653,4.835c1.098,0,2.46-0.528,3.233-1.702L243.607,131.856z"/>
	<rect x="244.687" y="122.602" fill="#797B7D" width="1.024" height="10.977"/>
	<path fill="#797B7D" d="M252.897,122.327c3.347,0,5.674,2.415,5.674,5.764c0,3.351-2.327,5.763-5.674,5.763
		c-3.348,0-5.674-2.412-5.674-5.763C247.223,124.742,249.549,122.327,252.897,122.327 M252.897,132.925
		c2.862,0,4.648-2.104,4.648-4.835s-1.786-4.835-4.648-4.835c-2.863,0-4.649,2.104-4.649,4.835S250.034,132.925,252.897,132.925"/>
	<polygon fill="#797B7D" points="260.067,122.602 261.381,122.602 268.062,132.215 268.089,132.215 268.089,122.602 
		269.115,122.602 269.115,133.579 267.8,133.579 261.115,123.97 261.09,123.97 261.09,133.579 260.067,133.579 	"/>
	<path fill="#797B7D" d="M274.687,122.601h1.056l4.617,10.978h-1.148l-1.193-2.911h-5.811l-1.239,2.911h-1.072L274.687,122.601z
		 M275.167,123.719l-2.557,6.016h5.036L275.167,123.719z"/>
	<polygon fill="#797B7D" points="281.146,122.602 282.17,122.602 282.17,132.65 287.284,132.65 287.284,133.579 281.146,133.579 	
		"/>
	<path fill="#797B7D" d="M291.215,122.601h3.392c5.709,0,5.938,4.684,5.938,5.484c0,0.807-0.229,5.493-5.938,5.493h-3.392V122.601z
		 M292.239,132.647h2.105c2.915,0,5.18-1.41,5.18-4.562c0-3.145-2.265-4.555-5.18-4.555h-2.105V132.647z"/>
	<polygon fill="#797B7D" points="302.041,122.602 308.751,122.602 308.751,123.532 303.066,123.532 303.066,127.437 
		308.396,127.437 308.396,128.37 303.066,128.37 303.066,132.65 309.001,132.65 309.001,133.579 302.041,133.579 	"/>
	<polygon fill="#797B7D" points="313.69,122.602 320.4,122.602 320.4,123.532 314.71,123.532 314.71,127.437 320.045,127.437 
		320.045,128.37 314.71,128.37 314.71,132.65 320.646,132.65 320.646,133.579 313.69,133.579 	"/>
	<path fill="#797B7D" d="M322.383,131.545c0.544,0.911,1.424,1.38,2.512,1.38c1.38,0,2.46-0.839,2.46-2.153
		c0-3.073-5.652-1.275-5.652-5.439c0-1.953,1.672-3.006,3.515-3.006c1.193,0,2.251,0.398,2.992,1.379l-0.883,0.631
		c-0.512-0.709-1.192-1.081-2.14-1.081c-1.315,0-2.461,0.68-2.461,2.077c0,3.298,5.652,1.316,5.652,5.439
		c0,1.982-1.625,3.081-3.406,3.081c-1.44,0-2.714-0.46-3.568-1.654L322.383,131.545z"/>
	<polygon fill="#797B7D" points="332.351,123.532 328.597,123.532 328.597,122.602 337.12,122.602 337.12,123.532 333.371,123.532 
		333.371,133.579 332.351,133.579 	"/>
	<path fill="#797B7D" d="M345.818,129.376c0,2.339-1.008,4.477-4,4.477s-3.996-2.138-3.996-4.477v-6.775h1.021v6.51
		c0,1.564,0.421,3.814,2.976,3.814c2.561,0,2.977-2.25,2.977-3.814v-6.51h1.023V129.376z"/>
	<path fill="#797B7D" d="M347.688,122.601h3.392c5.706,0,5.936,4.684,5.936,5.484c0,0.807-0.229,5.493-5.936,5.493h-3.392V122.601z
		 M348.709,132.647h2.107c2.915,0,5.178-1.41,5.178-4.562c0-3.145-2.263-4.555-5.178-4.555h-2.107V132.647z"/>
	<rect x="358.516" y="122.602" fill="#797B7D" width="1.023" height="10.977"/>
	<path fill="#797B7D" d="M366.726,122.327c3.345,0,5.667,2.415,5.667,5.764c0,3.351-2.322,5.763-5.667,5.763
		c-3.348,0-5.674-2.412-5.674-5.763C361.052,124.742,363.378,122.327,366.726,122.327 M366.726,132.925
		c2.866,0,4.649-2.104,4.649-4.835s-1.783-4.835-4.649-4.835c-2.868,0-4.654,2.104-4.654,4.835S363.858,132.925,366.726,132.925"/>
	<path fill="#797B7D" d="M374.183,131.545c0.545,0.911,1.429,1.38,2.513,1.38c1.38,0,2.464-0.839,2.464-2.153
		c0-3.073-5.656-1.275-5.656-5.439c0-1.953,1.674-3.006,3.521-3.006c1.192,0,2.244,0.398,2.991,1.379l-0.887,0.631
		c-0.509-0.709-1.194-1.081-2.139-1.081c-1.313,0-2.464,0.68-2.464,2.077c0,3.298,5.658,1.316,5.658,5.439
		c0,1.982-1.629,3.081-3.41,3.081c-1.44,0-2.71-0.46-3.564-1.654L374.183,131.545z"/>
	<polygon fill="#797B7D" points="387.402,123.532 383.649,123.532 383.649,122.602 392.172,122.602 392.172,123.532 
		388.422,123.532 388.422,133.579 387.402,133.579 	"/>
	<path fill="#797B7D" d="M393.071,122.606h6.71v0.928h-5.685v3.908h5.329v0.928h-5.329v4.277h5.935v0.927h-6.96V122.606z
		 M396.885,119.689h1.238l-2.077,2.234h-0.773L396.885,119.689z"/>
	<path fill="#797B7D" d="M410.506,131.856c-1.04,1.424-2.468,1.997-4.077,1.997c-3.351,0-5.673-2.42-5.673-5.763
		c0-3.349,2.322-5.769,5.673-5.769c1.487,0,2.818,0.5,3.779,1.723l-0.836,0.697c-0.681-1.024-1.842-1.486-2.943-1.486
		c-2.866,0-4.649,2.108-4.649,4.835c0,2.73,1.783,4.835,4.649,4.835c1.102,0,2.464-0.528,3.239-1.702L410.506,131.856z"/>
	<polygon fill="#797B7D" points="411.587,122.602 412.902,122.602 419.583,132.215 419.615,132.215 419.615,122.602 
		420.635,122.602 420.635,133.579 419.321,133.579 412.639,123.97 412.611,123.97 412.611,133.579 411.587,133.579 	"/>
	<rect x="422.846" y="122.602" fill="#797B7D" width="1.022" height="10.977"/>
	<path fill="#797B7D" d="M435.131,131.856c-1.037,1.424-2.464,1.997-4.076,1.997c-3.348,0-5.67-2.42-5.67-5.763
		c0-3.349,2.322-5.769,5.67-5.769c1.491,0,2.822,0.5,3.78,1.723l-0.839,0.697c-0.672-1.024-1.841-1.486-2.941-1.486
		c-2.867,0-4.649,2.108-4.649,4.835c0,2.73,1.782,4.835,4.649,4.835c1.101,0,2.467-0.528,3.24-1.702L435.131,131.856z"/>
	<path fill="#797B7D" d="M441.171,122.327c3.35,0,5.672,2.415,5.672,5.764c0,3.351-2.322,5.763-5.672,5.763
		c-3.351,0-5.673-2.412-5.673-5.763C435.499,124.742,437.821,122.327,441.171,122.327 M441.171,132.925
		c2.867,0,4.649-2.104,4.649-4.835s-1.782-4.835-4.649-4.835s-4.65,2.104-4.65,4.835S438.304,132.925,441.171,132.925"/>
	<path fill="#797B7D" d="M448.635,131.545c0.538,0.911,1.422,1.38,2.506,1.38c1.38,0,2.464-0.839,2.464-2.153
		c0-3.073-5.655-1.275-5.655-5.439c0-1.953,1.677-3.006,3.522-3.006c1.19,0,2.242,0.398,2.984,1.379l-0.878,0.631
		c-0.518-0.709-1.194-1.081-2.143-1.081c-1.317,0-2.464,0.68-2.464,2.077c0,3.298,5.658,1.316,5.658,5.439
		c0,1.982-1.625,3.081-3.406,3.081c-1.445,0-2.719-0.46-3.568-1.654L448.635,131.545z"/>
</g>
</svg>
